<svg width="179" height="196" viewBox="0 0 179 196" fill="none" xmlns="http://www.w3.org/2000/svg">
	<g clip-path="url(#clip0_97_2)">
		<path fill-rule="evenodd" clip-rule="evenodd" d="M101.269 180.337V188.265H116.861V196H93.4732V180.337C75.825 179.512 58.9221 172.929 45.3157 161.58L50.8457 156.011C64.0147 166.733 80.4368 172.582 97.3711 172.582C114.305 172.582 130.728 166.733 143.897 156.011L149.427 161.58C135.815 172.915 118.913 179.485 101.269 180.298V180.337ZM155.033 144.95C163.407 134.516 168.829 121.999 170.726 108.72C172.624 95.4415 170.927 81.893 165.814 69.5045C160.702 57.1161 152.363 46.3472 141.679 38.3342C130.994 30.3212 118.36 25.3613 105.109 23.9779V16.2431C119.865 17.6864 133.954 23.1411 145.87 32.024C157.785 40.9068 167.08 52.8838 172.759 66.6745C178.439 80.4652 180.29 95.551 178.115 110.319C175.94 125.087 169.82 138.983 160.41 150.519L154.88 144.95H155.033ZM89.7481 23.9779C75.5492 25.471 62.087 31.0873 50.9994 40.1436L45.3157 34.5359C57.8988 24.0388 73.3272 17.5975 89.5945 16.0497V23.7845L89.7481 23.9779ZM34.294 150.481C23.8704 137.809 17.4742 122.272 15.9373 105.889H23.6179C25.1006 120.189 30.6775 133.746 39.6704 144.912L34.294 150.481ZM15.9373 90.2265C17.4742 73.8445 23.8704 58.3072 34.294 45.6353L39.824 51.2044C30.8312 62.3703 25.2542 75.9274 23.7715 90.2265H15.9373Z" fill="#89BE5C"/>
		<path fill-rule="evenodd" clip-rule="evenodd" d="M144.089 139.575L168.974 164.597L163.444 170.166L138.558 145.105C127.679 154.764 113.795 160.299 99.299 160.758C84.8026 161.217 70.6011 156.57 59.1408 147.619L64.7093 142.011C72.8139 148.117 82.4462 151.832 92.528 152.738C102.61 153.645 112.743 151.708 121.794 147.144C130.844 142.58 138.455 135.569 143.774 126.897C149.093 118.224 151.91 108.232 151.91 98.0387C151.91 87.8454 149.093 77.8533 143.774 69.1808C138.455 60.5083 130.844 53.4977 121.794 48.9337C112.743 44.3698 102.61 42.4327 92.528 43.3391C82.4462 44.2456 72.8139 47.9599 64.7093 54.0663L59.1408 48.4972C69.012 40.7493 80.9811 36.1922 93.4732 35.4254V0H101.154C101.154 11.8085 101.154 23.6169 101.154 35.4254C112.799 36.1468 124.01 40.1455 133.51 46.9664C143.01 53.7873 150.418 63.1566 154.892 74.0083C159.365 84.86 160.724 96.7584 158.815 108.35C156.905 119.941 151.803 130.759 144.089 139.575ZM48.0807 136.558C41.2171 127.678 36.8649 117.095 35.4845 105.928H43.1651C44.5472 115.035 48.1933 123.643 53.7644 130.95L48.1575 136.519L48.0807 136.558ZM35.4845 90.1492C36.8649 78.9825 41.2171 68.3992 48.0807 59.5193L53.7644 65.1657C48.2972 72.5157 44.7575 81.1347 43.4723 90.2265L35.4845 90.1492Z" fill="#4B79BB"/>
		<path fill-rule="evenodd" clip-rule="evenodd" d="M97.3519 54.9171C104.238 54.9119 111.024 56.5776 117.135 59.7733C123.246 62.9689 128.503 67.6004 132.46 73.2757C136.417 78.9509 138.957 85.5028 139.867 92.3766C140.776 99.2503 140.028 106.244 137.685 112.764C135.341 119.285 131.473 125.141 126.406 129.837C121.339 134.532 115.223 137.929 108.576 139.74C101.929 141.551 94.9461 141.722 88.2194 140.239C81.4928 138.756 75.22 135.663 69.9321 131.221L31.2601 170.166L25.7685 164.597L64.4405 125.652C58.8741 118.945 55.4712 110.688 54.6861 101.983H0V94.2486H54.6861C55.4712 85.5436 58.8741 77.2868 64.4405 70.5801L25.7685 31.4807L31.2601 25.9503L69.9705 64.895C77.6635 58.4298 87.3705 54.8975 97.3903 54.9171H97.3519ZM122.122 73.0939C116.389 67.313 108.842 63.7132 100.769 62.908C92.6953 62.1028 84.5943 64.1422 77.8466 68.6784C71.0989 73.2146 66.1222 79.967 63.7645 87.7847C61.4069 95.6024 61.8144 104.002 64.9174 111.551C68.0205 119.1 73.6271 125.331 80.7817 129.184C87.9364 133.036 96.1961 134.27 104.153 132.677C112.11 131.083 119.273 126.759 124.419 120.443C129.565 114.127 132.377 106.209 132.376 98.0387C132.386 93.4085 131.489 88.8217 129.736 84.5412C127.983 80.2608 125.409 76.3707 122.16 73.0939H122.122Z" fill="#7F7E7C"/>
	</g>
	<defs>
		<clipPath id="clip0_97_2">
			<rect width="179" height="196" fill="white"/>
		</clipPath>
	</defs>
</svg>
